<svg width="211" height="330" viewBox="0 0 211 330" version="1.1" xmlns="http://www.w3.org/2000/svg" xmlns:xlink="http://www.w3.org/1999/xlink">
<title>Group</title>
<desc>Created using Figma</desc>
<g id="Canvas" transform="translate(244 227)">
<g id="Group">
<g id="Polygon">
<use xlink:href="#path0_fill" transform="translate(-260 -228)" fill="#4BC751"/>
</g>
<g id="Polygon" filter="url(#filter0_d)">
<use xlink:href="#path1_fill" transform="translate(-242 -210)" fill="#FFFFFF"/>
</g>
<g id="flux_logo">
<g id="Group">
<g id="Vector">
<use xlink:href="#path2_fill" transform="translate(-203 -109)" fill="#44B74A"/>
</g>
</g>
</g>
<g id="AWESOME FLUX">
<use xlink:href="#path3_fill" transform="translate(-267 42)" fill="#828282"/>
</g>
<g id="5e665fe6171eee0779bae18436fca4e8">
<g id="Group">
<g id="Group">
<g id="Vector">
<use xlink:href="#path4_fill" transform="matrix(0.1 0 0 -0.1 -165 -119)" fill="#4BC751"/>
</g>
</g>
</g>
</g>
</g>
</g>
<defs>
<filter id="filter0_d" filterUnits="userSpaceOnUse" x="-235" y="-216" width="193" height="219" color-interpolation-filters="sRGB">
<feFlood flood-opacity="0" result="BackgroundImageFix"/>
<feColorMatrix in="SourceAlpha" type="matrix" values="0 0 0 0 0 0 0 0 0 0 0 0 0 0 0 0 0 0 255 0"/>
<feOffset dx="0" dy="0"/>
<feGaussianBlur stdDeviation="3"/>
<feColorMatrix type="matrix" values="0 0 0 0 0 0 0 0 0 0 0 0 0 0 0 0 0 0 0.25 0"/>
<feBlend mode="normal" in2="BackgroundImageFix" result="effect1_dropShadow"/>
<feBlend mode="normal" in="SourceGraphic" in2="effect1_dropShadow" result="shape"/>
</filter>
<path id="path0_fill" d="M 116.5 2.88675C 119.594 1.10042 123.406 1.10042 126.5 2.88675L 221.722 57.8632C 224.816 59.6496 226.722 62.9508 226.722 66.5235L 226.722 176.477C 226.722 180.049 224.816 183.35 221.722 185.137L 126.5 240.113C 123.406 241.9 119.594 241.9 116.5 240.113L 21.2779 185.137C 18.1839 183.35 16.2779 180.049 16.2779 176.477L 16.2779 66.5235C 16.2779 62.9508 18.1839 59.6496 21.2779 57.8632L 116.5 2.88675Z"/>
<path id="path1_fill" d="M 102 0.866025C 102.928 0.330127 104.072 0.330127 105 0.866025L 191.634 50.884C 192.562 51.4199 193.134 52.4103 193.134 53.4821L 193.134 153.518C 193.134 154.59 192.562 155.58 191.634 156.116L 105 206.134C 104.072 206.67 102.928 206.67 102 206.134L 15.3664 156.116C 14.4382 155.58 13.8664 154.59 13.8664 153.518L 13.8664 53.4821C 13.8664 52.4103 14.4382 51.4199 15.3664 50.884L 102 0.866025Z"/>
<path id="path2_fill" d="M 102.517 2.22095e-07C 97.4927 2.22095e-07 92.8135 1.46134 88.8659 3.97212L 63.9993 22.2476L 50.8925 12.6165C 50.1027 13.8988 49.3071 15.1738 48.5464 16.494C 48.3631 16.8113 48.1929 17.1329 48.0126 17.4502L 58.9681 25.5007L 35.9792 42.3935C 32.8287 44.3585 29.204 45.3977 25.4819 45.3977C 14.5191 45.3977 5.59848 36.4724 5.59848 25.5007C 5.59848 14.529 14.5177 5.60375 25.4819 5.60375C 29.204 5.60375 32.8302 6.64154 35.9792 8.60795L 38.2643 10.2862C 39.2083 8.65307 40.1872 7.05782 41.1748 5.47422L 39.1326 3.97357C 35.1865 1.46134 30.5058 0.00145494 25.4819 0.00145494C 11.4093 0.00145494 1.88652e-07 11.4186 1.88652e-07 25.5007C 1.88652e-07 39.5829 11.4079 51 25.4819 51C 30.5058 51 35.1865 49.5387 39.1326 47.0279L 63.9993 28.7538L 77.1569 38.4228C 77.9628 37.1012 78.7671 35.7752 79.5627 34.394C 79.7198 34.1203 79.8624 33.8481 80.018 33.5745L 69.0319 25.5007L 92.0193 8.60795C 95.1698 6.643 98.796 5.60375 102.517 5.60375C 113.481 5.60375 122.4 14.529 122.4 25.5007C 122.4 36.4724 113.481 45.3977 102.517 45.3977C 98.7945 45.3977 95.1698 44.3599 92.0193 42.3935L 89.7677 40.7386C 88.8135 42.3877 87.8477 43.9902 86.8776 45.5651L 88.8674 47.0264C 92.8149 49.5387 97.4942 50.9985 102.518 50.9985C 116.591 50.9985 128 39.5814 128 25.4993C 127.999 11.4171 116.591 2.22095e-07 102.517 2.22095e-07Z"/>
<path id="path3_fill" d="M 68.2316 17L 65.3876 17L 63.1196 -0.352L 60.8516 17L 58.0076 17L 61.8236 -8.2L 63.2276 -8.2C 64.3076 -8.2 64.4876 -7.516 64.5956 -6.832L 68.2316 17ZM 91.4722 -8.2L 89.4202 -8.2C 88.8802 -8.2 88.7002 -7.876 88.6642 -7.696L 87.0082 6.128L 85.3162 -4.6L 84.9922 -4.6C 83.3362 -4.6 82.9042 -4.06 82.7602 -2.584L 81.5002 6.128L 79.7722 -7.66C 79.7362 -7.84 79.5922 -8.2 78.9802 -8.2L 77.0002 -8.2L 80.1322 17L 82.5082 17L 84.2362 4.22L 86.0002 17L 88.4122 17L 91.4722 -8.2ZM 105.876 14.444L 105.876 5.696C 105.876 5.372 106.164 5.084 106.488 5.084L 107.568 5.084C 108.396 5.084 108.756 4.724 108.936 4.4C 109.044 4.184 109.476 3.14 109.764 2.492L 105.876 2.492L 105.876 -4.996C 105.876 -5.356 106.128 -5.608 106.488 -5.608L 108.576 -5.608C 109.404 -5.608 109.8 -6.004 109.944 -6.328L 110.808 -8.2L 104.076 -8.2C 103.644 -8.2 103.32 -7.876 103.284 -7.48L 103.284 17L 109.044 17C 109.872 17 110.268 16.64 110.448 16.316C 110.556 16.1 110.988 15.092 111.276 14.444L 105.876 14.444ZM 131.062 -2.728C 131.386 -2.908 131.782 -3.304 131.782 -4.132L 131.782 -5.104C 131.782 -6.832 130.378 -8.416 128.65 -8.452L 127.03 -8.452C 125.23 -8.452 123.79 -6.868 123.79 -5.104L 123.79 -2.512C 123.79 -2.512 123.682 -0.82 124.942 1.484L 128.038 7.28C 128.038 7.28 129.154 9.224 129.154 10.7L 129.154 13.58C 129.154 14.372 128.542 14.984 127.786 14.984C 127.03 14.984 126.418 14.372 126.418 13.616L 126.418 9.224C 125.77 9.512 124.726 9.98 124.51 10.052C 124.186 10.232 123.79 10.628 123.79 11.456L 123.79 14.048C 123.826 15.776 125.194 17.18 126.922 17.252L 128.542 17.252C 130.342 17.252 131.782 15.812 131.782 14.048L 131.782 10.844C 131.782 10.844 131.89 9.152 130.63 6.848L 127.534 1.016C 127.534 1.016 126.418 -0.892 126.418 -2.368L 126.418 -4.78C 126.418 -5.572 127.03 -6.184 127.786 -6.184C 128.542 -6.184 129.154 -5.572 129.154 -4.78L 129.154 -1.864C 129.838 -2.152 130.846 -2.62 131.062 -2.728ZM 148.436 -8.452C 146.636 -8.452 145.196 -7.012 145.196 -5.248L 145.196 14.084C 145.232 15.812 146.672 17.252 148.436 17.252L 150.416 17.252C 152.144 17.18 153.512 15.812 153.548 14.084L 153.548 -5.248C 153.548 -6.976 152.144 -8.38 150.416 -8.452L 148.436 -8.452ZM 149.156 14.984C 148.4 14.948 147.788 14.336 147.788 13.58L 147.788 -4.78C 147.788 -5.536 148.4 -6.148 149.156 -6.184L 149.552 -6.184C 150.308 -6.184 150.92 -5.572 150.92 -4.78L 150.92 13.58C 150.92 14.372 150.308 14.984 149.552 14.984L 149.156 14.984ZM 176.97 -8.2L 175.386 -8.2C 174.45 -8.2 174.27 -7.408 174.234 -7.3L 171.39 7.208L 168.402 -7.264C 168.402 -7.264 168.258 -8.2 167.25 -8.2L 165.666 -8.2L 165.666 17L 168.222 17L 168.222 4.004L 169.734 10.592C 169.878 11.132 170.166 12.644 171.678 12.644L 172.47 12.644L 174.414 4.004L 174.414 17L 176.97 17L 176.97 -8.2ZM 192.958 14.444L 192.958 5.696C 192.958 5.372 193.246 5.084 193.57 5.084L 194.65 5.084C 195.478 5.084 195.838 4.724 196.018 4.4C 196.126 4.184 196.558 3.14 196.846 2.492L 192.958 2.492L 192.958 -4.996C 192.958 -5.356 193.21 -5.608 193.57 -5.608L 195.658 -5.608C 196.486 -5.608 196.882 -6.004 197.026 -6.328L 197.89 -8.2L 191.158 -8.2C 190.726 -8.2 190.402 -7.876 190.366 -7.48L 190.366 17L 196.126 17C 196.954 17 197.35 16.64 197.53 16.316C 197.638 16.1 198.07 15.092 198.358 14.444L 192.958 14.444ZM 94.7566 34.8C 94.3246 34.8 94.0006 35.16 94.0006 35.556L 94.0006 60L 95.8006 60C 96.1966 60 96.5566 59.676 96.5566 59.244L 96.5566 49.056C 96.5566 48.696 96.8446 48.444 97.2046 48.444L 98.9326 48.444C 99.7606 48.444 100.121 48.048 100.301 47.724L 101.165 45.852L 96.5566 45.852L 96.5566 38.004C 96.5566 37.68 96.8446 37.392 97.1686 37.392L 100.049 37.392C 100.877 37.392 101.237 36.996 101.417 36.672C 101.525 36.456 101.993 35.448 102.245 34.8L 94.7566 34.8ZM 117.999 57.444L 117.999 35.592C 117.999 35.16 117.639 34.836 117.207 34.8L 115.407 34.8L 115.407 60L 121.599 60C 122.427 60 122.823 59.64 123.003 59.316C 123.111 59.1 123.543 58.092 123.831 57.444L 117.999 57.444ZM 142.544 34.8L 139.952 34.8L 139.952 56.58C 139.952 57.336 139.34 57.948 138.584 57.948L 138.188 57.948C 137.432 57.948 136.856 57.336 136.856 56.58L 136.856 34.8L 135.02 34.8C 134.624 34.8 134.3 35.124 134.264 35.52L 134.264 57.048C 134.264 58.812 135.704 60.144 137.468 60.144L 139.448 60.144L 139.448 60.108C 141.14 60.072 142.544 58.776 142.544 57.048L 142.544 34.8ZM 157.613 60L 154.625 60L 158.621 46.644L 155.237 34.8L 157.253 34.8C 157.361 34.8 158.009 34.8 158.261 35.664L 160.097 42.36L 161.825 35.664C 162.077 34.8 162.725 34.8 162.833 34.8L 164.849 34.8L 161.609 46.68L 165.353 60L 162.545 60L 160.205 50.856L 157.613 60Z"/>
<path id="path4_fill" d="M 85.5815 518.993C 62.7189 515.654 46.3947 507.459 29.6025 491.067C 12.1838 474.063 4.2557 458.585 0.835328 434.293C -4.60847 396.343 17.0083 355.967 52.465 337.755C 86.3663 320.302 126.95 323.184 157.741 345.192L 164.891 350.351L 192.103 326.066C 207.03 312.71 223.361 297.984 228.488 293.43C 235.488 287.054 237.972 283.715 239.059 278.858C 240.766 271.569 246.678 263.226 251.185 261.855C 254.138 260.941 254.296 259.577 254.296 227.096L 254.296 193.244L 244.654 191.269C 231.592 188.844 211.999 179.734 201.111 170.927C 173.741 149.066 160.527 111.425 167.987 76.6593C 177.32 33.093 219.149 6.86435e-06 265.176 6.86435e-06C 301.879 6.86435e-06 337.638 21.4036 353.66 53.1259C 364.389 74.5295 367.032 93.9579 362.214 116.423C 354.286 153.916 325.98 181.997 287.261 190.805L 276.064 193.384L 276.064 226.168L 276.064 258.966L 280.73 262.305C 286.793 266.705 290.214 272.019 292.237 279.913C 293.792 285.529 297.99 289.929 329.559 318.32L 365.167 350.344L 372.475 345.185C 390.355 332.589 409.639 326.361 430.946 326.361C 485.838 326.361 529.849 369.013 530 422.751C 530 449.314 520.668 471.477 501.543 490.448C 488.79 503.044 480.084 508.66 464.53 514.129C 417.725 530.676 364.54 510.031 342.772 466.767C 333.908 449.005 331.575 438.081 332.353 418.955C 333.282 401.045 336.86 388.597 345.256 374.63L 350.391 366.132L 316.806 335.928L 283.063 305.569L 276.842 308.303C 268.755 311.944 260.978 311.944 253.67 308.149L 247.758 305.267L 213.72 335.773L 179.667 366.286L 182.936 370.989C 201.284 398.008 203.307 436.865 187.754 467.076C 168.931 503.206 126.172 525.059 85.5815 518.993ZM 126.633 493.492C 169.708 477.557 188.834 428.824 167.995 388.449L 163.955 380.857L 155.091 388.294C 138.45 402.563 138.767 401.804 141.719 412.882C 143.742 420.776 143.893 424.115 142.497 430.792C 137.989 452.8 117.927 467.526 95.533 465.551C 79.9864 464.187 67.385 455.984 60.3859 442.629C 46.7044 416.368 62.8774 385.553 92.8831 380.696C 102.676 379.03 106.723 379.937 122.118 386.01C 123.674 386.614 128.649 383.128 136.736 375.993L 149.02 364.908L 141.092 359.897C 129.585 352.762 118.23 348.966 105.484 348.06C 59.925 344.58 22.4521 378.58 22.4521 423.053C 22.4521 438.081 24.3171 445.363 31.4675 458.726C 42.3551 479.216 66.4562 495.46 89.0018 497.583C 102.222 498.953 116.062 497.435 126.633 493.492ZM 446.039 497.133C 450.086 496.528 458.791 493.492 465.474 490.301C 481.337 482.561 493.312 470.415 501.24 454.326C 506.374 443.55 506.993 441.118 507.462 427.003C 508.081 414.407 507.462 409.55 504.819 401.045C 495.026 369.625 465.013 347.764 431.58 347.61C 415.407 347.61 396.591 353.528 385.242 362.483L 381.664 365.218L 394.107 376.148L 406.55 387.233L 413.239 383.894C 422.881 379.037 438.896 379.037 449.315 384.049C 466.107 391.942 476.059 408.489 474.662 425.794C 472.948 447.5 456.782 463.745 434.856 465.565C 412.31 467.54 392.559 453.117 387.892 431.411C 386.337 424.122 386.495 421.24 388.67 413.044C 391.622 401.811 392.249 403.175 377.005 389.974L 366.427 380.865L 362.697 388.154C 353.833 405.157 351.5 424.733 356.166 442.496C 364.094 471.941 390.377 494.103 422.255 497.899C 426.921 498.503 432.516 498.658 434.698 498.503C 436.865 498.194 441.841 497.59 446.039 497.133ZM 254.303 154.992L 254.303 138.6L 247.462 136.02C 221.496 126.306 213.093 90.0286 231.909 68.6251C 248.701 49.3442 282.293 49.4989 298.617 68.9273C 309.346 81.6781 311.989 100.193 304.99 114.616C 300.792 123.572 289.753 134.045 281.825 136.477L 276.071 138.452L 276.071 155.146L 276.071 171.84L 281.205 170.779C 318.837 162.738 345.429 128.429 342.319 91.5399C 338.589 45.8508 294.894 13.6716 249.327 22.9289C 230.044 26.8793 210.76 39.7776 200.348 55.8672C 173.136 97.3108 192.571 152.257 240.002 168.045C 245.756 169.865 251.358 171.538 252.445 171.538C 253.835 171.531 254.303 167.285 254.303 154.992Z"/>
</defs>
</svg>
